<svg width="59" height="59" viewBox="0 0 59 59" fill="none" xmlns="http://www.w3.org/2000/svg">
<rect width="58.0935" height="58.0935" rx="7.88976" fill="url(#paint0_linear_709_123)"/>
<path d="M13 16.7383C13 16.2078 13.2107 15.6991 13.5858 15.3241C13.9609 14.949 14.4696 14.7383 15 14.7383H19C19.5304 14.7383 20.0391 14.949 20.4142 15.3241C20.7893 15.6991 21 16.2078 21 16.7383V40.7383C21 41.2687 20.7893 41.7774 20.4142 42.1525C20.0391 42.5276 19.5304 42.7383 19 42.7383H15C14.4696 42.7383 13.9609 42.5276 13.5858 42.1525C13.2107 41.7774 13 41.2687 13 40.7383V16.7383ZM25 16.7383C25 16.2078 25.2107 15.6991 25.5858 15.3241C25.9609 14.949 26.4696 14.7383 27 14.7383H31C31.5304 14.7383 32.0391 14.949 32.4142 15.3241C32.7893 15.6991 33 16.2078 33 16.7383V40.7383C33 41.2687 32.7893 41.7774 32.4142 42.1525C32.0391 42.5276 31.5304 42.7383 31 42.7383H27C26.4696 42.7383 25.9609 42.5276 25.5858 42.1525C25.2107 41.7774 25 41.2687 25 40.7383V16.7383ZM39 14.7383C38.4696 14.7383 37.9609 14.949 37.5858 15.3241C37.2107 15.6991 37 16.2078 37 16.7383V40.7383C37 41.2687 37.2107 41.7774 37.5858 42.1525C37.9609 42.5276 38.4696 42.7383 39 42.7383H43C43.5304 42.7383 44.0391 42.5276 44.4142 42.1525C44.7893 41.7774 45 41.2687 45 40.7383V16.7383C45 16.2078 44.7893 15.6991 44.4142 15.3241C44.0391 14.949 43.5304 14.7383 43 14.7383H39Z" fill="white"/>
<defs>
<linearGradient id="paint0_linear_709_123" x1="69.5327" y1="-87.882" x2="25.9942" y2="64.3308" gradientUnits="userSpaceOnUse">
<stop stop-color="#5498FF"/>
<stop offset="0.515625" stop-color="#428EFF"/>
<stop offset="1" stop-color="#297FFF"/>
</linearGradient>
</defs>
</svg>
